<svg width="462" height="54" viewBox="0 0 462 54" fill="none" xmlns="http://www.w3.org/2000/svg">
<path d="M0 8.45171V0.5H41.7784V8.45171H25.5938V52.8636H16.1847V8.45171H0Z" fill="white"/>
<path d="M44.9852 52.8636V13.5909H53.9596V20.1364H54.3687C55.0846 17.8693 56.3119 16.1222 58.0505 14.8949C59.8062 13.6506 61.809 13.0284 64.059 13.0284C64.5704 13.0284 65.1414 13.054 65.7721 13.1051C66.4198 13.1392 66.9568 13.1989 67.3829 13.2841V21.7983C66.9909 21.6619 66.3687 21.5426 65.5164 21.4403C64.6812 21.321 63.8715 21.2614 63.0874 21.2614C61.3999 21.2614 59.8829 21.6278 58.5363 22.3608C57.2068 23.0767 56.1585 24.0739 55.3914 25.3523C54.6244 26.6307 54.2409 28.1051 54.2409 29.7756V52.8636H44.9852Z" fill="white"/>
<path d="M83.7701 53.6562C81.2814 53.6562 79.0399 53.2131 77.0456 52.3267C75.0684 51.4233 73.5002 50.0938 72.3411 48.3381C71.199 46.5824 70.628 44.4176 70.628 41.8438C70.628 39.6278 71.0371 37.7955 71.8553 36.3466C72.6735 34.8977 73.7899 33.7386 75.2047 32.8693C76.6195 32 78.2132 31.3438 79.986 30.9006C81.7757 30.4403 83.6252 30.108 85.5343 29.9034C87.8354 29.6648 89.7019 29.4517 91.1337 29.2642C92.5655 29.0597 93.6053 28.7528 94.253 28.3438C94.9178 27.9176 95.2502 27.2614 95.2502 26.375V26.2216C95.2502 24.2955 94.6791 22.804 93.5371 21.7472C92.3951 20.6903 90.7502 20.1619 88.6024 20.1619C86.3354 20.1619 84.5371 20.6563 83.2076 21.6449C81.8951 22.6335 81.0087 23.8011 80.5485 25.1477L71.9064 23.9205C72.5882 21.5341 73.7132 19.5398 75.2814 17.9375C76.8496 16.3182 78.7672 15.108 81.0343 14.3068C83.3013 13.4886 85.807 13.0795 88.5513 13.0795C90.4434 13.0795 92.3269 13.3011 94.2019 13.7443C96.0769 14.1875 97.7899 14.9205 99.3411 15.9432C100.892 16.9489 102.137 18.321 103.074 20.0597C104.029 21.7983 104.506 23.9716 104.506 26.5795V52.8636H95.6081V47.4688H95.3013C94.7388 48.5597 93.9462 49.5824 92.9235 50.5369C91.9178 51.4744 90.6479 52.233 89.1138 52.8125C87.5968 53.375 85.8155 53.6562 83.7701 53.6562ZM86.1735 46.8551C88.0314 46.8551 89.6422 46.4886 91.0059 45.7557C92.3695 45.0057 93.4178 44.017 94.1507 42.7898C94.9007 41.5625 95.2757 40.2244 95.2757 38.7756V34.1477C94.986 34.3864 94.4917 34.608 93.7928 34.8125C93.111 35.017 92.3439 35.196 91.4916 35.3494C90.6394 35.5028 89.7956 35.6392 88.9604 35.7585C88.1252 35.8778 87.4007 35.9801 86.7871 36.0653C85.4064 36.2528 84.1706 36.5597 83.0797 36.9858C81.9888 37.4119 81.128 38.0085 80.4973 38.7756C79.8666 39.5256 79.5513 40.4972 79.5513 41.6903C79.5513 43.3949 80.1735 44.6818 81.4178 45.5511C82.6621 46.4205 84.2473 46.8551 86.1735 46.8551Z" fill="white"/>
<path d="M147.126 13.5909L133.14 52.8636H122.913L108.927 13.5909H118.796L127.822 42.7642H128.231L137.282 13.5909H147.126Z" fill="white"/>
<path d="M169.221 53.6307C165.284 53.6307 161.883 52.8125 159.02 51.1761C156.173 49.5227 153.983 47.1875 152.448 44.1705C150.914 41.1364 150.147 37.5653 150.147 33.4574C150.147 29.4176 150.914 25.8722 152.448 22.821C154 19.7528 156.164 17.3665 158.943 15.6619C161.721 13.9403 164.985 13.0795 168.735 13.0795C171.156 13.0795 173.44 13.4716 175.588 14.2557C177.752 15.0227 179.662 16.2159 181.315 17.8352C182.985 19.4545 184.298 21.517 185.252 24.0227C186.207 26.5114 186.684 29.4773 186.684 32.9205V35.7585H154.494V29.5199H177.812C177.795 27.7472 177.412 26.1705 176.662 24.7898C175.912 23.392 174.863 22.2926 173.517 21.4915C172.187 20.6903 170.636 20.2898 168.863 20.2898C166.971 20.2898 165.309 20.75 163.877 21.6705C162.446 22.5739 161.329 23.767 160.528 25.25C159.744 26.7159 159.343 28.3267 159.326 30.0824V35.5284C159.326 37.8125 159.744 39.7727 160.579 41.4091C161.414 43.0284 162.582 44.2727 164.082 45.142C165.582 45.9943 167.338 46.4205 169.349 46.4205C170.696 46.4205 171.914 46.233 173.005 45.858C174.096 45.4659 175.042 44.8949 175.843 44.1449C176.645 43.3949 177.25 42.4659 177.659 41.358L186.301 42.3295C185.755 44.6136 184.716 46.608 183.181 48.3125C181.664 50 179.721 51.3125 177.352 52.25C174.983 53.1705 172.272 53.6307 169.221 53.6307Z" fill="white"/>
<path d="M203.41 0.5V52.8636H194.155V0.5H203.41Z" fill="white"/>
<path d="M233.636 0.5H243.045V37.3182C243.028 40.6932 242.312 43.5994 240.898 46.0369C239.483 48.4574 237.505 50.3239 234.966 51.6364C232.443 52.9318 229.503 53.5795 226.145 53.5795C223.077 53.5795 220.315 53.0341 217.861 51.9432C215.423 50.8352 213.488 49.1989 212.057 47.0341C210.625 44.8693 209.909 42.1761 209.909 38.9545H219.344C219.361 40.3693 219.667 41.5881 220.264 42.6108C220.878 43.6335 221.721 44.4176 222.795 44.9631C223.869 45.5085 225.105 45.7812 226.503 45.7812C228.02 45.7812 229.307 45.4659 230.363 44.8352C231.42 44.1875 232.221 43.233 232.767 41.9716C233.329 40.7102 233.619 39.1591 233.636 37.3182V0.5Z" fill="white"/>
<path d="M269.698 53.6307C265.863 53.6307 262.539 52.7869 259.726 51.0994C256.914 49.4119 254.732 47.0511 253.181 44.017C251.647 40.983 250.88 37.4375 250.88 33.3807C250.88 29.3239 251.647 25.7699 253.181 22.7188C254.732 19.6676 256.914 17.2983 259.726 15.6108C262.539 13.9233 265.863 13.0795 269.698 13.0795C273.533 13.0795 276.857 13.9233 279.67 15.6108C282.482 17.2983 284.655 19.6676 286.19 22.7188C287.741 25.7699 288.516 29.3239 288.516 33.3807C288.516 37.4375 287.741 40.983 286.19 44.017C284.655 47.0511 282.482 49.4119 279.67 51.0994C276.857 52.7869 273.533 53.6307 269.698 53.6307ZM269.749 46.2159C271.829 46.2159 273.567 45.6449 274.965 44.5028C276.363 43.3438 277.403 41.7926 278.084 39.8494C278.783 37.9063 279.133 35.7415 279.133 33.3551C279.133 30.9517 278.783 28.7784 278.084 26.8352C277.403 24.875 276.363 23.3153 274.965 22.1562C273.567 20.9972 271.829 20.4176 269.749 20.4176C267.618 20.4176 265.846 20.9972 264.431 22.1562C263.033 23.3153 261.985 24.875 261.286 26.8352C260.604 28.7784 260.263 30.9517 260.263 33.3551C260.263 35.7415 260.604 37.9063 261.286 39.8494C261.985 41.7926 263.033 43.3438 264.431 44.5028C265.846 45.6449 267.618 46.2159 269.749 46.2159Z" fill="white"/>
<path d="M321.043 36.3466V13.5909H330.299V52.8636H321.325V45.8835H320.915C320.029 48.0824 318.572 49.8807 316.543 51.2784C314.532 52.6761 312.052 53.375 309.103 53.375C306.529 53.375 304.254 52.804 302.276 51.6619C300.316 50.5028 298.782 48.8239 297.674 46.625C296.566 44.4091 296.012 41.733 296.012 38.5966V13.5909H305.268V37.1648C305.268 39.6534 305.95 41.6307 307.313 43.0966C308.677 44.5625 310.467 45.2955 312.682 45.2955C314.046 45.2955 315.367 44.9631 316.646 44.2983C317.924 43.6335 318.972 42.6449 319.79 41.3324C320.626 40.0028 321.043 38.3409 321.043 36.3466Z" fill="white"/>
<path d="M339.457 52.8636V13.5909H348.431V20.1364H348.84C349.556 17.8693 350.783 16.1222 352.522 14.8949C354.278 13.6506 356.281 13.0284 358.531 13.0284C359.042 13.0284 359.613 13.054 360.244 13.1051C360.891 13.1392 361.428 13.1989 361.854 13.2841V21.7983C361.462 21.6619 360.84 21.5426 359.988 21.4403C359.153 21.321 358.343 21.2614 357.559 21.2614C355.872 21.2614 354.354 21.6278 353.008 22.3608C351.678 23.0767 350.63 24.0739 349.863 25.3523C349.096 26.6307 348.712 28.1051 348.712 29.7756V52.8636H339.457Z" fill="white"/>
<path d="M376.899 29.8523V52.8636H367.644V13.5909H376.49V20.2642H376.95C377.854 18.0653 379.294 16.3182 381.271 15.0227C383.266 13.7273 385.729 13.0795 388.661 13.0795C391.371 13.0795 393.732 13.6591 395.743 14.8182C397.771 15.9773 399.34 17.6562 400.448 19.8551C401.573 22.054 402.127 24.7216 402.109 27.858V52.8636H392.854V29.2898C392.854 26.6648 392.172 24.6108 390.808 23.1278C389.462 21.6449 387.595 20.9034 385.209 20.9034C383.59 20.9034 382.149 21.2614 380.888 21.9773C379.644 22.6761 378.663 23.6903 377.948 25.0199C377.249 26.3494 376.899 27.9602 376.899 29.8523Z" fill="white"/>
<path d="M422.46 53.6562C419.971 53.6562 417.73 53.2131 415.735 52.3267C413.758 51.4233 412.19 50.0938 411.031 48.3381C409.889 46.5824 409.318 44.4176 409.318 41.8438C409.318 39.6278 409.727 37.7955 410.545 36.3466C411.363 34.8977 412.48 33.7386 413.894 32.8693C415.309 32 416.903 31.3438 418.676 30.9006C420.465 30.4403 422.315 30.108 424.224 29.9034C426.525 29.6648 428.392 29.4517 429.823 29.2642C431.255 29.0597 432.295 28.7528 432.943 28.3438C433.607 27.9176 433.94 27.2614 433.94 26.375V26.2216C433.94 24.2955 433.369 22.804 432.227 21.7472C431.085 20.6903 429.44 20.1619 427.292 20.1619C425.025 20.1619 423.227 20.6563 421.897 21.6449C420.585 22.6335 419.698 23.8011 419.238 25.1477L410.596 23.9205C411.278 21.5341 412.403 19.5398 413.971 17.9375C415.539 16.3182 417.457 15.108 419.724 14.3068C421.991 13.4886 424.497 13.0795 427.241 13.0795C429.133 13.0795 431.017 13.3011 432.892 13.7443C434.767 14.1875 436.48 14.9205 438.031 15.9432C439.582 16.9489 440.826 18.321 441.764 20.0597C442.718 21.7983 443.196 23.9716 443.196 26.5795V52.8636H434.298V47.4688H433.991C433.428 48.5597 432.636 49.5824 431.613 50.5369C430.607 51.4744 429.338 52.233 427.803 52.8125C426.286 53.375 424.505 53.6562 422.46 53.6562ZM424.863 46.8551C426.721 46.8551 428.332 46.4886 429.696 45.7557C431.059 45.0057 432.107 44.017 432.84 42.7898C433.59 41.5625 433.965 40.2244 433.965 38.7756V34.1477C433.676 34.3864 433.181 34.608 432.482 34.8125C431.801 35.017 431.034 35.196 430.181 35.3494C429.329 35.5028 428.485 35.6392 427.65 35.7585C426.815 35.8778 426.09 35.9801 425.477 36.0653C424.096 36.2528 422.86 36.5597 421.769 36.9858C420.678 37.4119 419.818 38.0085 419.187 38.7756C418.556 39.5256 418.241 40.4972 418.241 41.6903C418.241 43.3949 418.863 44.6818 420.107 45.5511C421.352 46.4205 422.937 46.8551 424.863 46.8551Z" fill="white"/>
<path d="M461.398 0.5V52.8636H452.142V0.5H461.398Z" fill="white"/>
</svg>
